<svg xmlns="http://www.w3.org/2000/svg" width="24.946" height="34.597" viewBox="0 0 24.946 34.597">
  <path id="패스_139" data-name="패스 139" d="M22.547,0H.258L.914-4.148l14.18-13.617q3.961-3.867,4.359-7.008a5.025,5.025,0,0,0-.75-3.715,3.848,3.848,0,0,0-3.164-1.582,5.745,5.745,0,0,0-4.383,1.629A7.626,7.626,0,0,0,9-23.742l-5.531.023a11.531,11.531,0,0,1,1.91-5.648,11.408,11.408,0,0,1,4.453-3.9,12.583,12.583,0,0,1,6.012-1.324,10.073,10.073,0,0,1,7.043,2.578,7.933,7.933,0,0,1,2.285,6.656q-.4,4.781-5.742,10.1l-1.453,1.43L8.109-4.547H23.273Z" transform="translate(-0.258 34.597)"/>
</svg>
