<svg xmlns="http://www.w3.org/2000/svg" width="24.085" height="35.066" viewBox="0 0 24.085 35.066">
  <path id="패스_137" data-name="패스 137" d="M9.75-19.664l3.023.023a7.039,7.039,0,0,0,4.57-1.477,5.6,5.6,0,0,0,2.086-3.937,4.678,4.678,0,0,0-.844-3.645A4.148,4.148,0,0,0,15.3-30.07a5.614,5.614,0,0,0-3.82,1.289,5.445,5.445,0,0,0-1.945,3.516l-5.555.023a9.27,9.27,0,0,1,1.8-4.9,10.389,10.389,0,0,1,4.16-3.316,13.043,13.043,0,0,1,5.543-1.137,10.21,10.21,0,0,1,7.207,2.66,8.284,8.284,0,0,1,2.332,6.879,7.6,7.6,0,0,1-1.734,4.3,12.6,12.6,0,0,1-4.547,3.363,7.091,7.091,0,0,1,4.313,6.516V-9.75A10.141,10.141,0,0,1,19.3-2.3,12.469,12.469,0,0,1,10.828.469a11.164,11.164,0,0,1-5.18-1.23,8.46,8.46,0,0,1-3.527-3.4,9.384,9.384,0,0,1-1.137-5l5.531.023A4.95,4.95,0,0,0,7.629-5.52a4.65,4.65,0,0,0,3.527,1.441,5.965,5.965,0,0,0,4.348-1.5A6.278,6.278,0,0,0,17.578-9.75a4.639,4.639,0,0,0-1.066-3.961,5.449,5.449,0,0,0-3.879-1.43l-3.586-.023Z" transform="translate(-0.978 34.594)"/>
</svg>
